<?xml version="1.0" encoding="UTF-8"?>
<svg id="Camada_2" data-name="Camada 2" xmlns="http://www.w3.org/2000/svg" viewBox="0 0 120 120">
  <defs>
    <style>
      .cls-1 {
        fill: #f50;
      }

      .cls-2 {
        fill: #fff;
      }
    </style>
  </defs>
  <g id="Camada_1-2" data-name="Camada 1">
    <rect class="cls-1" width="120" height="120"/>
    <path class="cls-2" d="M93.9,23.79l-14.27,71.55h-17.36l1.06-5.11c-3.95,3.76-9.06,5.98-15.14,5.98-11.28,0-22.08-8.58-22.08-23.82,0-17.36,12.83-30.18,28.45-30.18,6.94,0,12.63,2.12,15.91,6.94l5.11-25.36h18.32ZM66.99,66.89c0-6.08-3.57-10.03-9.84-10.03-7.33,0-12.44,5.88-12.44,14.66,0,6.08,3.57,9.93,9.84,9.93,7.33,0,12.44-5.88,12.44-14.56Z"/>
  </g>
</svg>